# xmcd
#
# Track frame offsets:
#	150
#	15024
#	28914
#	42132
#	57803
#	71650
#	85119
#	101564
#	117674
#	131664
#	146254
#	161175
#	177340
#	191548
#	210308
#	225262
#	240604
#	257276
#	271470
#	285389
#	301103
#	315049
#	329951
#
# Disc length: 4597 seconds
#
# Revision: 1
# Processed by: cddbd v1.5.2PL0 Copyright (c) Steve Scherf et al.
# Submitted via: audiograbber 1.83.01
#
DISCID=3111f317
DTITLE=A-Teens - New Arrival - Teen Spirit
DYEAR=1900
DGENRE=Pop
TTITLE0=Floorfiller
TTITLE1=Have A Little Faith In Me
TTITLE2=Shame Shame Shame
TTITLE3=Let Your Heart Do All The Talking
TTITLE4=A Perfect Match
TTITLE5=The Letter
TTITLE6=Cross My Heart
TTITLE7=In The Blink Of An Eye
TTITLE8=School's Out (Feat. Alice Cooper)
TTITLE9=Closer To Perfection
TTITLE10=Shangri La
TTITLE11=One Night In Bangkok
TTITLE12=Can't Help Falling In Love (Bonus Track)
TTITLE13=Heartbreak Lullaby (Ballad Version) (Bonus Track)
TTITLE14=Upside Down
TTITLE15=To The Music
TTITLE16=Halfway Around The World
TTITLE17=Firefly
TTITLE18=Sugar Rush
TTITLE19=Rocking
TTITLE20=Slammin' Kinda Love
TTITLE21=All My Love
TTITLE22=For All That I Am
EXTD=
EXTT0=
EXTT1=
EXTT2=
EXTT3=
EXTT4=
EXTT5=
EXTT6=
EXTT7=
EXTT8=
EXTT9=
EXTT10=
EXTT11=
EXTT12=
EXTT13=
EXTT14=
EXTT15=
EXTT16=
EXTT17=
EXTT18=
EXTT19=
EXTT20=
EXTT21=
EXTT22=
PLAYORDER=
